<svg width="475" height="400" viewBox="0 0 475 400" fill="none" xmlns="http://www.w3.org/2000/svg">
<rect width="475" height="400" fill="#554AB1"/>
<g clip-path="url(#clip0_114_2)">
<path d="M179.56 98.4271C179.051 101.077 180.455 103.723 182.987 104.657L192.06 108.006C195.963 77.052 218.69 58.0503 249.654 59.7114L247.952 50.039C247.482 47.3686 245.103 45.5076 242.39 45.5582C212.147 46.1275 185.304 68.6046 179.56 98.4271ZM197.157 109.888L258.349 132.465C258.794 132.629 259.274 132.673 259.741 132.592C260.208 132.512 260.645 132.309 261.009 132.006C261.373 131.702 261.65 131.308 261.813 130.863C261.976 130.418 262.018 129.938 261.936 129.471L250.597 65.0892C221.593 63.0044 200.298 80.7899 197.164 109.889L197.157 109.888ZM247.869 110.171C247.768 111.219 247.359 112.212 246.693 113.027C246.027 113.841 245.135 114.44 244.129 114.747C243.123 115.055 242.048 115.057 241.041 114.754C240.034 114.45 239.139 113.855 238.47 113.043C237.801 112.231 237.388 111.239 237.283 110.193C237.177 109.146 237.385 108.092 237.879 107.163C238.373 106.234 239.131 105.473 240.058 104.975C240.985 104.477 242.038 104.265 243.085 104.366C244.49 104.502 245.782 105.19 246.68 106.278C247.577 107.367 248.005 108.767 247.869 110.171ZM223.487 99.804C223.386 100.851 222.977 101.845 222.311 102.659C221.645 103.474 220.753 104.073 219.747 104.38C218.741 104.687 217.666 104.69 216.659 104.386C215.652 104.083 214.757 103.488 214.088 102.676C213.419 101.864 213.006 100.872 212.901 99.8253C212.795 98.7786 213.003 97.7242 213.497 96.7954C213.991 95.8667 214.749 95.1053 215.676 94.6075C216.603 94.1098 217.656 93.898 218.704 93.999C220.108 94.1344 221.4 94.8221 222.298 95.9108C223.195 96.9995 223.623 98.3999 223.487 99.804ZM242.354 84.2573C242.253 85.3044 241.843 86.2981 241.178 87.1126C240.512 87.9271 239.619 88.526 238.613 88.8334C237.607 89.1408 236.533 89.1429 235.525 88.8396C234.518 88.5362 233.623 87.941 232.954 87.1291C232.285 86.3173 231.872 85.3253 231.767 84.2786C231.662 83.2319 231.869 82.1775 232.363 81.2487C232.857 80.3199 233.616 79.5585 234.542 79.0608C235.469 78.563 236.523 78.3513 237.57 78.4523C238.974 78.5877 240.267 79.2754 241.164 80.3641C242.061 81.4527 242.489 82.8532 242.354 84.2573Z" fill="#332B7C"/>
</g>
<path d="M326.325 77.4779L352.571 77.0451C353.203 77.0348 353.809 76.797 354.28 76.3755C354.75 75.954 355.053 75.377 355.132 74.7503L359.49 40.176L362.464 40.127L362.377 34.8777L358.75 34.9375L354.076 25.965C353.851 25.5323 353.51 25.1708 353.092 24.9212C352.673 24.6716 352.193 24.5438 351.705 24.5522L325.459 24.985C324.464 25.0014 323.565 25.5781 323.134 26.4752L318.761 35.5969L315.134 35.6567L315.22 40.906L318.194 40.857L323.689 75.2688C323.789 75.8925 324.111 76.4592 324.595 76.865C325.079 77.2708 325.693 77.4884 326.325 77.4779ZM353.192 48.1559L324.751 48.6249L323.496 40.7695L354.186 40.2635L353.192 48.1559ZM328.514 72.1911L327.258 64.3357L351.202 63.9409L350.206 71.8334L328.514 72.1911ZM327.168 30.2076L350.17 29.8283L352.881 35.0343L324.63 35.5001L327.168 30.2076Z" fill="#332B7C"/>
<path d="M436.332 89.381C423.465 85.9359 409.051 88.955 406.484 102.67C422.9 108.505 439.628 112.625 456.499 116.042C461.234 103.372 449.607 92.9356 436.332 89.381ZM442.795 94.2016C444.144 94.5599 445.094 95.3902 444.917 96.0561C444.74 96.7221 443.504 96.9714 442.155 96.6131C440.806 96.2547 439.856 95.4245 440.033 94.7586C440.209 94.0925 441.446 93.8432 442.795 94.2016ZM428.646 93.0076C429.995 93.3659 430.945 94.1963 430.768 94.8621C430.591 95.5281 429.354 95.7774 428.005 95.419C426.657 95.0607 425.707 94.2305 425.883 93.5645C426.06 92.8986 427.297 92.6492 428.646 93.0076ZM449.065 102.832C450.414 103.19 451.364 104.021 451.187 104.686C451.011 105.352 449.774 105.602 448.425 105.243C447.076 104.885 446.126 104.055 446.303 103.389C446.479 102.723 447.716 102.474 449.065 102.832ZM415.322 96.6532C416.671 97.0115 417.621 97.8418 417.444 98.5077C417.267 99.1737 416.03 99.4229 414.681 99.0645C413.332 98.7062 412.382 97.8761 412.559 97.21C412.736 96.5441 413.973 96.2949 415.322 96.6532ZM452.264 110.353C453.613 110.711 454.563 111.541 454.386 112.207C454.209 112.873 452.972 113.122 451.623 112.764C450.275 112.406 449.325 111.575 449.501 110.909C449.678 110.244 450.915 109.994 452.264 110.353ZM435.345 106.899C436.694 107.257 437.644 108.087 437.467 108.753C437.29 109.419 436.053 109.668 434.704 109.31C433.355 108.952 432.405 108.122 432.582 107.456C432.759 106.79 433.996 106.54 435.345 106.898L435.345 106.899ZM407.1 105.282C404.796 104.722 405.224 107.95 408.049 108.712C423.252 114.071 436.331 117.478 453.083 120.362C455.114 120.552 456.548 119.59 455.095 118.055C438.953 114.759 422.902 110.802 407.1 105.282ZM454.486 123.122C438.197 120.554 420.612 115.485 407.302 110.834C401.825 108.574 400.016 114.95 403.567 116.607C420.757 123.07 436.062 126.628 453.737 129.866C456.795 130.531 457.271 123.649 454.486 123.122ZM397.722 122.752L399.271 124.384C400.307 123.57 402.459 121.085 404.33 121.564C406.645 122.157 405.768 127.029 408.146 127.635C410.885 128.333 413.729 125.038 415.473 125.588C418.11 126.418 417.503 130.77 419.583 131.326C422.491 132.104 424.549 127.939 426.371 128.559C428.916 129.426 429.48 133.042 431.581 133.717C433.846 134.445 436.345 130.711 437.859 131.149C439.854 131.727 440.237 135.979 443.347 136.9C445.186 137.445 448.135 133.334 448.999 133.64C450.703 134.245 451.547 136.975 452.24 139.007L454.38 138.311C453.447 135.966 452.167 131.977 449.443 131.306C446.905 130.681 445.085 135.078 443.622 134.667C440.82 133.881 440.576 129.698 438.338 128.951C436.038 128.183 433.577 132.036 432.049 131.518C429.8 130.756 429.686 127.119 427.032 126.316C424.683 125.605 421.701 129.772 420.222 129.169C418.105 128.306 418.946 124.125 416.203 123.208C413.933 122.448 410.683 125.699 409.162 125.217C407.072 124.554 407.403 119.547 404.959 118.929C402.314 118.26 399.257 121.338 397.722 122.752ZM402.306 128.648C401.276 128.463 399.971 128.578 399.267 129.448C398.757 130.174 401.309 131.097 401.539 131.176C416.817 136.283 432.002 140.337 448.674 143.523C449.809 143.74 450.458 143.59 450.658 143.48C451.299 142.588 448.306 141.053 447.988 140.959C425.675 134.879 414.18 132.264 402.306 128.648ZM448.899 145.836C433.359 142.608 414.387 137.882 399.571 132.823L398.393 137.512C414.665 142.432 431.566 146.84 447.524 150.552L448.899 145.836Z" fill="#332B7C"/>
<path d="M90.9198 100.893C91.2567 100.889 91.5947 100.872 91.9374 100.841C95.3927 100.533 99.2618 98.8074 103.274 95.0131C102.516 94.7196 101.772 94.3052 101.05 93.7598C95.2208 89.3533 98.6366 84.6719 103.102 85.64C96.998 79.1466 102.71 73.9476 109.148 77.185C107.437 72.9592 112.399 70.3296 117.008 74.0337C120.158 66.9224 120.762 62.0374 120.816 57.9835C120.841 56.1053 120.557 55.1388 120.344 54.7695C120.131 54.4001 120.068 54.3968 119.61 54.2848C119.152 54.1733 118.372 54.1558 117.417 53.8342C116.708 53.5953 115.923 53.0788 115.329 52.2999C108.925 52.0754 99.4442 52.0705 86.6016 59.0294C79.1402 63.0721 75.5003 69.1656 74.4499 75.5519C73.399 81.938 75.043 88.6259 78.3487 93.4886C81.4477 98.0473 85.8661 100.95 90.9201 100.892L90.9198 100.893ZM79.9129 89.4417C75.4347 80.8333 78.4284 73.5858 90.2211 68.0358C84.4076 74.5442 79.5945 81.5236 79.9128 89.442L79.9129 89.4417ZM77.6623 72.8535C83.9293 63.9426 94.3402 55.3551 109.343 55.4515C98.4859 59.4724 87.0687 65.7672 77.6625 72.8538L77.6623 72.8535ZM122.892 52.9295C129.996 46.065 140.055 38.3466 144.195 36.7114C148.478 35.0201 150.053 36.4359 152.39 33.475C154.614 30.7212 150.149 24.6012 145.35 28.1052C149.65 21.0745 140.688 15.7591 138.181 25.5465C136.205 33.5419 125.684 42.9311 117.605 49.9981L117.66 50.1126C117.927 50.708 118.045 50.7324 118.42 50.8588C118.796 50.9855 119.471 51.0204 120.354 51.236C121.165 51.4336 122.21 51.9503 122.892 52.9295Z" fill="#332B7C"/>
<path d="M353.402 131C351.952 131 350.377 131.162 348.676 131.479C343.451 132.445 337.15 134.864 330.375 138.351C328.949 139.082 327.499 139.859 326.049 140.68C328.899 141.553 331.775 142.492 334.225 143.588C336.425 144.541 338.325 145.614 339.7 147.187C341.076 148.784 341.626 151.355 340.576 153.502C339.876 154.925 338.725 155.249 337.725 155.524C336.7 155.773 335.575 155.898 334.3 155.948C331.725 156.073 328.474 155.898 324.924 155.549C319.124 155 312.523 154.001 307.097 152.928C303.697 155.374 300.297 157.945 296.921 160.616C299.747 161.514 302.397 162.688 304.697 164.01C307.297 165.508 309.423 167.131 310.823 168.978C311.523 169.926 312.073 170.95 312.198 172.173C312.323 173.421 311.848 174.818 310.923 175.742C308.898 177.814 306.072 177.889 302.847 177.839C299.647 177.814 295.921 177.314 292.221 176.666C288.096 175.917 284.145 175.018 281.045 174.219C276.97 177.938 273.144 181.683 269.594 185.327C271.994 186.25 274.594 187.449 276.92 188.722C278.92 189.82 280.695 190.943 282.02 192.216C282.695 192.84 283.27 193.489 283.67 194.388C284.07 195.286 284.17 196.634 283.57 197.682V197.707C282.895 198.831 281.945 199.255 281.02 199.604C280.12 199.954 279.095 200.203 277.945 200.378C275.644 200.753 272.894 200.927 269.994 200.977C265.106 201.052 260.04 200.753 256.598 200.203C255.765 201.302 254.98 202.35 254.255 203.398C250.752 208.415 248.604 212.784 248.119 215.554C247.877 216.952 248.034 217.826 248.322 218.35C248.607 218.874 249.049 219.273 250.257 219.598C252.552 220.172 256.46 219.723 261.286 218.025C266.111 216.328 271.844 213.532 278.045 209.913C290.446 202.675 304.697 192.266 317.823 181.308C330.95 170.35 342.951 158.844 350.877 149.458C354.827 144.766 357.777 140.61 359.277 137.495C360.027 135.935 360.402 134.644 360.477 133.823C360.527 133.129 360.452 132.904 360.302 132.735C358.677 131.669 356.577 131.077 354.027 131.007H353.402V131ZM320.774 143.775C317.973 145.49 315.123 147.337 312.248 149.284C316.523 150.032 321.199 150.681 325.374 151.081C328.799 151.405 331.9 151.555 334.1 151.455C335.2 151.405 336.075 151.305 336.55 151.181C336.7 151.131 336.675 151.131 336.725 151.106C336.85 150.731 336.75 150.632 336.3 150.132C335.725 149.458 334.3 148.535 332.4 147.686C329.25 146.288 324.874 145.015 320.774 143.775ZM360.602 144.142C358.902 146.663 356.777 149.433 354.302 152.354C351.602 155.549 348.476 158.943 345.026 162.488C347.301 162.588 349.801 162.388 352.352 161.764C356.902 160.641 360.728 158.444 363.128 156.023C365.503 153.577 366.378 151.106 365.853 148.984C365.353 146.937 363.578 145.19 360.602 144.142ZM292.571 164.16C290.821 165.608 289.096 167.056 287.396 168.528C286.62 169.202 285.845 169.876 285.07 170.575C287.521 171.149 290.271 171.748 293.021 172.247C296.571 172.871 300.122 173.321 302.922 173.346C305.697 173.396 307.622 172.672 307.722 172.597C307.697 172.497 307.597 172.173 307.222 171.673C306.472 170.65 304.722 169.202 302.447 167.929C299.672 166.332 296.096 164.934 292.571 164.16ZM340.976 166.507C336 171.374 330.475 176.416 324.674 181.383C325.999 181.583 327.399 181.708 328.849 181.708C333.55 181.708 337.775 180.484 340.676 178.687C343.576 176.89 345.001 174.694 345.001 172.497C345.001 170.375 343.676 168.279 340.976 166.507ZM362.878 166.681C362.253 167.305 361.603 167.954 360.878 168.553C345.776 181.308 327.524 197.807 309.148 210.787C291.046 223.592 272.819 233.176 256.763 231.854C258.508 233.126 260.353 233.9 262.206 234.375C266.941 235.623 271.844 234.749 274.644 233.95C294.846 228.134 316.348 213.882 332.925 200.353C341.201 193.589 348.251 187.024 353.302 181.807C355.827 179.211 357.852 176.965 359.277 175.218C360.703 173.496 361.503 171.923 361.453 172.148C362.028 170.201 362.503 168.379 362.878 166.681ZM320.349 185.027C314.623 189.82 308.698 194.487 302.772 198.856C304.122 199.03 305.522 199.13 306.972 199.13C312.023 199.13 316.573 197.957 319.674 196.21C322.774 194.462 324.249 192.366 324.249 190.419C324.249 188.622 322.999 186.7 320.349 185.027ZM266.193 188.921C263.928 191.367 261.826 193.739 259.908 196.06C262.786 196.334 266.496 196.509 269.944 196.484C272.694 196.434 275.294 196.26 277.22 195.96C277.97 195.835 278.52 195.661 278.97 195.536C278.945 195.486 278.97 195.511 278.945 195.486C278.12 194.687 276.569 193.639 274.744 192.64C272.069 191.168 268.769 189.77 266.193 188.921ZM296.371 203.448C290.871 207.292 285.47 210.787 280.32 213.782C278.745 214.706 277.22 215.554 275.694 216.378C277.72 216.827 279.97 217.077 282.295 217.077C287.346 217.077 291.896 215.904 294.996 214.156C298.097 212.409 299.572 210.312 299.572 208.366C299.572 206.743 298.522 204.996 296.371 203.448ZM268.894 219.773C266.759 220.746 264.716 221.595 262.773 222.269C257.913 223.966 253.642 224.815 249.987 224.116C250.237 224.365 250.509 224.59 250.81 224.815C252.67 226.212 255.392 227.136 258.445 227.136C261.498 227.136 264.221 226.212 266.081 224.815C267.936 223.442 268.894 221.744 268.894 219.947V219.773Z" fill="#332B7C"/>
<path d="M406.042 185C404.27 185 402.833 186.436 402.833 188.208V194.625C402.833 196.397 404.27 197.833 406.042 197.833C407.813 197.833 409.25 196.397 409.25 194.625V188.208C409.25 186.436 407.813 185 406.042 185Z" fill="#332B7C"/>
<path fill-rule="evenodd" clip-rule="evenodd" d="M428.5 245.958C438.038 245.958 445.957 239.021 447.484 229.917H447.75C454.838 229.917 460.583 224.171 460.583 217.083C460.583 209.996 454.838 204.25 447.75 204.25V201.042H390V226.708C390 237.34 398.619 245.958 409.25 245.958H428.5ZM396.417 207.458V226.708C396.417 233.796 402.162 239.542 409.25 239.542H428.5C435.588 239.542 441.333 233.796 441.333 226.708V207.458H396.417ZM454.167 217.083C454.167 220.627 451.294 223.5 447.75 223.5V210.667C451.294 210.667 454.167 213.539 454.167 217.083Z" fill="#332B7C"/>
<path d="M415.667 188.208C415.667 186.436 417.103 185 418.875 185C420.647 185 422.083 186.436 422.083 188.208V194.625C422.083 196.397 420.647 197.833 418.875 197.833C417.103 197.833 415.667 196.397 415.667 194.625V188.208Z" fill="#332B7C"/>
<path d="M431.708 185C429.936 185 428.5 186.436 428.5 188.208V194.625C428.5 196.397 429.936 197.833 431.708 197.833C433.48 197.833 434.917 196.397 434.917 194.625V188.208C434.917 186.436 433.48 185 431.708 185Z" fill="#332B7C"/>
<path d="M156.408 140C153.337 142.052 150.773 143.801 149.507 145.245C148.789 146.064 148.473 146.741 148.432 147.359C148.391 147.977 148.592 148.674 149.339 149.64L149.51 149.862C152.322 149.332 155.567 149.078 159.083 149.162C163.812 149.275 168.29 149.979 172.054 151.109C171.826 150.679 171.6 150.277 171.353 149.929C170.459 148.669 169.528 147.874 166.707 148.034L166.629 148.039L166.551 148.033C161.64 147.682 159.191 146.107 157.995 144.104C157.112 142.624 156.834 141.174 156.408 140L156.408 140ZM158.546 151.594C153.48 151.574 149.074 152.31 146.053 153.492C144.442 154.123 143.232 154.886 142.522 155.655C141.812 156.424 141.618 157.122 141.747 157.776C141.856 158.324 142.212 158.916 142.926 159.57C146.755 158.169 151.39 157.099 156.523 156.52C163.954 155.682 171.027 156.03 176.58 157.318C177.749 157.59 178.851 157.903 179.878 158.259C179.654 157.723 179.19 157.146 178.386 156.509C177.363 155.699 175.838 154.871 173.96 154.157C170.205 152.729 165.061 151.739 159.567 151.608C159.224 151.6 158.883 151.595 158.546 151.594L158.546 151.594ZM165.109 158.44C162.587 158.433 159.943 158.572 157.252 158.875C150.074 159.685 143.916 161.511 139.851 163.736C137.819 164.848 136.316 166.064 135.461 167.228C134.745 168.202 134.488 169.085 134.593 169.9C135.181 169.687 135.792 169.482 136.429 169.286C142.381 167.455 150.433 166.358 159.325 166.358C168.217 166.358 176.27 167.455 182.221 169.286C182.413 169.345 182.602 169.405 182.79 169.466C183.456 168.918 183.995 168.365 184.393 167.824C185.249 166.659 185.451 165.623 185.159 164.68C184.868 163.736 184.06 162.814 182.566 161.915C181.072 161.015 178.944 160.209 176.384 159.615C173.183 158.872 169.314 158.452 165.109 158.44H165.109ZM159.325 168.537C150.716 168.537 142.925 169.623 137.408 171.321C134.649 172.17 132.465 173.176 131.044 174.209C129.624 175.243 129 176.235 129 177.198C129 178.161 129.624 179.153 131.044 180.186C131.055 180.194 131.066 180.202 131.077 180.209L139.829 175.834L149.46 180.71L159.336 175.833L168.836 180.71L178.832 175.839L187.573 180.209C187.584 180.202 187.595 180.194 187.606 180.186C189.026 179.153 189.65 178.161 189.65 177.198C189.65 176.235 189.026 175.243 187.606 174.209C186.185 173.176 184.001 172.17 181.242 171.321C175.725 169.623 167.934 168.537 159.325 168.537ZM178.818 178.557L170.219 182.748L167.847 201.725L165.428 201.42L167.745 182.89L159.314 178.562L150.885 182.725L153.222 201.42L150.803 201.725L148.454 182.933L139.822 178.562L131.592 182.677L140.679 207.667H177.971L187.059 182.677L178.818 178.557V178.557Z" fill="#332B7C"/>
<path d="M359.914 258.588C355.397 256.566 350.264 255.896 343.577 256.126C340.657 263.16 340.952 271.668 342.714 276.891C345.197 276.963 348.066 277.784 350.778 278.998C353.491 280.212 356.015 281.805 357.722 283.608C362.792 281.442 369.333 275.994 372.633 269.131C368.35 263.991 364.431 260.609 359.914 258.588L359.914 258.588ZM340.681 257.857C337.27 257.291 334.696 258.173 332.431 260.086C329.905 263.909 329.311 266.984 329.697 269.764C330.072 272.467 331.436 274.958 333.123 277.457C334.515 277.911 335.829 278.342 337.08 278.419C338.242 278.49 339.373 278.276 340.649 277.503C338.918 272.329 338.525 264.792 340.681 257.857L340.681 257.857ZM373.272 272.444C369.536 278.672 363.654 283.4 358.641 285.556C358.915 287.023 359.509 288.008 360.337 288.828C361.227 289.71 362.424 290.402 363.69 291.138C366.678 290.731 369.444 290.089 371.71 288.568C374.04 287.004 375.938 284.513 377.106 280.082C377.023 277.118 375.966 274.611 373.271 272.444L373.272 272.444ZM328.175 263.936C324.57 266.146 321.482 269.029 319.833 272.714C318.66 275.335 317.744 277.982 317.426 280.179C317.107 282.376 317.398 283.997 318.293 284.911C319.715 286.212 323.601 284.073 326.084 282.385C326.811 281.81 327.685 281.08 328.524 280.364C329.77 279.301 330.594 278.57 331.038 278.174C329.411 275.707 328.011 273.073 327.592 270.056C327.328 268.15 327.476 266.114 328.175 263.936L328.175 263.936ZM377.07 285.82C375.911 287.793 374.492 289.26 372.894 290.332C370.365 292.03 367.468 292.74 364.544 293.171C364.545 293.765 364.549 294.867 364.586 296.505C364.611 297.607 364.649 298.746 364.705 299.671C364.839 301.778 365.462 306.56 368.012 307.164C369.289 307.222 370.691 306.359 372.118 304.658C373.544 302.957 374.908 300.511 376.081 297.89C377.73 294.204 377.824 289.982 377.07 285.82Z" fill="#332B7C"/>
<path d="M70.7012 135.622C64.1837 128.157 53.1157 126.165 44.3023 131.253C35.4889 136.341 31.6808 146.923 34.8863 156.299C33.1911 158.343 32.1617 160.856 31.9364 163.502C31.711 166.147 32.3005 168.798 33.6256 171.099C37.207 177.302 45.1319 179.425 51.3349 175.844C51.6717 175.65 51.9481 175.415 52.2568 175.237L80.1501 192.889L78.4562 160.073C78.7812 159.923 79.0943 159.817 79.403 159.639C85.6061 156.058 87.7295 148.133 84.1482 141.93C81.3771 137.13 75.9474 134.726 70.7012 135.622ZM73.0123 180.656L56.9068 170.456C59.9135 170.165 62.8216 169.227 65.4321 167.707C68.0425 166.187 70.2936 164.121 72.0312 161.65L73.0123 180.656ZM76.162 154.025C74.7025 154.868 73.003 155.101 71.353 154.706L68.9062 154.098L67.7343 156.346C66.4404 158.76 64.4959 160.762 62.1216 162.126C59.7473 163.49 57.0381 164.162 54.3015 164.064L51.7846 163.983L51.0879 166.406C50.5885 168.004 49.5534 169.388 48.0939 170.23C46.6849 171.032 45.0268 171.276 43.4468 170.914C41.8668 170.553 40.4796 169.612 39.5591 168.278C38.6385 166.944 38.2514 165.313 38.4741 163.708C38.6969 162.103 39.5133 160.639 40.7623 159.606L42.7129 157.993L41.6173 155.707C38.419 148.871 40.9754 140.659 47.5433 136.867C54.1113 133.075 62.5015 134.967 66.7944 141.171L68.2268 143.263L70.5825 142.352C73.5644 141.229 76.9303 142.392 78.5346 145.171C80.3172 148.258 79.2495 152.243 76.162 154.025Z" fill="#332B7C"/>
<path d="M116.803 280.386C115.681 279.052 114.548 277.705 113.41 276.375C98.1773 286.98 79.3913 285.319 67.69 275.874C61.6324 270.989 57.469 263.993 56.7373 255.626C56.0377 247.437 58.6413 237.978 65.7231 227.975C64.5485 226.962 63.3739 225.948 62.1852 224.94C60.3116 227.303 55.6106 233.757 53.0518 242.336C49.8222 253.119 50.0468 266.682 64.4516 279.186C77.2718 290.309 90.5147 290.341 100.757 287.659C108.468 285.64 114.359 282.053 116.803 280.386ZM111.638 274.312C106.256 266.054 101.237 260.922 95.5824 255.68C95.1984 255.409 94.3699 256.036 94.6354 256.852L99.803 279.741C103.835 278.692 107.839 276.902 111.638 274.312ZM103.676 270.373L101.252 271.552L98.5359 266.005L100.96 264.826L103.676 270.373ZM92.1316 258.084C91.8291 257.013 90.6827 256.744 89.7222 257.982L79.7018 279.273C85.1008 281.002 91.1201 281.445 97.157 280.325L92.1316 258.084ZM91.7726 264.065L91.212 269.992L88.5302 269.745L89.0908 263.819L91.7726 264.065ZM86.569 247.492C86.534 247.362 86.4515 247.228 86.3215 247.092C80.408 241.234 74.2786 234.687 67.7761 229.768C63.6481 235.629 61.2111 241.177 60.0829 246.322L85.0583 248.769C85.8433 249.026 86.7859 248.244 86.569 247.492ZM87.391 256.022C87.1847 255.252 86.0791 255.019 85.8303 255.195L63.9974 268.02C65.5074 270.169 67.3309 272.094 69.3983 273.766C71.7023 275.624 74.3256 277.163 77.1431 278.323L87.3125 256.775C87.4352 256.477 87.4455 256.226 87.391 256.022ZM85.1792 251.835C85.1179 251.665 84.9366 251.511 84.5306 251.448L59.6133 248.985C59.3225 251.212 59.2746 253.358 59.4476 255.398C59.7776 259.186 60.861 262.648 62.558 265.728L84.7017 252.726C84.9901 252.524 85.2609 252.14 85.1792 251.835ZM79.0504 243.373L77.9025 245.829L71.0001 242.556L72.148 240.1L79.0504 243.373ZM81.6208 263.018L78.5964 267.129L76.4245 265.531L79.4489 261.42L81.6208 263.018ZM75.0459 252.542L75.6594 255.18L69.4233 256.602L68.8098 253.964L75.0459 252.542Z" fill="#332B7C"/>
<path d="M190.335 242.002C188.24 241.951 186.357 243.052 186.417 245.819L150 275.396L150.048 276.575V306.991L151.997 306.535L178.488 300.322L179.412 303.327L184.463 302.759L183.884 299.053L195.661 296.292L197.164 298.034L200.875 298.31L200.716 295.108L221.436 290.244V290.249C221.667 290.215 221.889 290.16 222.105 290.09C222.109 290.088 222.112 290.085 222.116 290.084L225.652 289.256L226.879 288.969V287.748L230.028 262.7C231.538 259.792 228.924 254.807 223.448 255.882C224.256 252.499 216.824 251.101 214.607 252.951C215.162 249.858 208.255 245.863 205.787 249.351C206.574 245.484 197.97 242.407 195.788 245.894C195.379 243.608 192.718 242.059 190.335 242.001L190.335 242.002ZM188.588 248.74C188.985 249.217 189.853 249.682 190.866 249.903C191.88 250.124 193.011 250.095 193.649 249.929L195.168 249.536L195.582 251.055C195.957 252.449 196.746 252.98 198.035 253.259C199.324 253.537 201.054 253.317 202.427 252.77L204.19 252.064L204.572 253.922C204.742 254.753 205.828 255.807 207.349 256.354C208.87 256.902 210.603 256.818 211.347 256.354L213.264 255.16L213.737 257.369C213.945 258.346 214.507 259.022 215.378 259.509C216.248 259.995 217.43 260.224 218.617 260.082L218.999 263.236C217.192 263.453 215.366 263.141 213.827 262.28C212.798 261.705 211.926 260.831 211.32 259.758C209.683 260.166 207.894 259.926 206.276 259.344C204.614 258.746 203.003 257.724 202.097 256.205C200.579 256.594 198.943 256.701 197.366 256.36C195.659 255.99 194.002 254.926 193.065 253.211C192.14 253.279 191.169 253.217 190.192 253.003C188.712 252.68 187.206 252.044 186.146 250.768L188.588 248.739L188.588 248.74ZM220.709 268.477L220.725 268.536C221.004 268.47 221.056 268.485 221.346 268.722C221.637 268.958 222.05 269.506 222.403 270.309C223.093 271.876 223.577 274.324 223.704 276.851V279.57C223.618 281.3 223.371 282.947 222.971 284.248C222.675 285.212 222.295 285.979 221.925 286.446C221.668 286.772 221.453 286.943 221.246 287.031L153.223 302.987V281.227C175.758 275.364 198.254 270.569 220.709 268.478L220.709 268.477ZM208.432 298.57L203.94 299.09L206.414 302.711L210.657 301.957L208.432 298.57H208.432ZM197.764 302.823L192.327 303.71L194.222 305.908L197.939 306.184L197.764 302.823L197.764 302.823ZM171.044 307.835L170.768 310.369L174.586 310.868L176.019 308.266L171.044 307.836L171.044 307.835ZM189.295 308.637L185.163 309.174L185.461 311.919L190.845 311.452L189.295 308.638L189.295 308.637Z" fill="#332B7C"/>
<defs>
<clipPath id="clip0_114_2">
<rect width="85.1024" height="85.1024" fill="white" transform="translate(177 124.709) rotate(-84.49)"/>
</clipPath>
</defs>
</svg>
